<svg xmlns="http://www.w3.org/2000/svg" viewBox="0 0 512 512">
  <!-- Background -->
  <circle cx="256" cy="256" r="256" fill="#1976d2" />
  <circle cx="256" cy="256" r="230" fill="#ffffff" />
  <circle cx="256" cy="256" r="210" fill="#f5f5f5" />
  
  <!-- Calendar base -->
  <rect x="136" y="146" width="240" height="220" rx="12" ry="12" fill="#ffffff" stroke="#1976d2" stroke-width="12" />
  
  <!-- Calendar header -->
  <rect x="136" y="146" width="240" height="40" rx="12" ry="12" fill="#1976d2" />
  
  <!-- Calendar grid lines -->
  <line x1="136" y1="226" x2="376" y2="226" stroke="#c0c0c0" stroke-width="4" />
  <line x1="136" y1="266" x2="376" y2="266" stroke="#c0c0c0" stroke-width="4" />
  <line x1="136" y1="306" x2="376" y2="306" stroke="#c0c0c0" stroke-width="4" />
  
  <line x1="176" y1="186" x2="176" y2="366" stroke="#c0c0c0" stroke-width="4" />
  <line x1="216" y1="186" x2="216" y2="366" stroke="#c0c0c0" stroke-width="4" />
  <line x1="256" y1="186" x2="256" y2="366" stroke="#c0c0c0" stroke-width="4" />
  <line x1="296" y1="186" x2="296" y2="366" stroke="#c0c0c0" stroke-width="4" />
  <line x1="336" y1="186" x2="336" y2="366" stroke="#c0c0c0" stroke-width="4" />
  
  <!-- Medical cross -->
  <rect x="240" y="236" width="32" height="90" rx="6" ry="6" fill="#f44336" />
  <rect x="211" y="265" width="90" height="32" rx="6" ry="6" fill="#f44336" />
  
  <!-- Calendar dates -->
  <circle cx="336" cy="246" r="14" fill="#1976d2" opacity="0.8" />
  <circle cx="176" cy="286" r="14" fill="#1976d2" opacity="0.8" />
  <circle cx="216" cy="326" r="14" fill="#1976d2" opacity="0.8" />
  <circle cx="296" cy="326" r="14" fill="#1976d2" opacity="0.8" />
  
  <!-- Stethoscope -->
  <path d="M130,120 C120,140 120,150 130,165 C140,180 160,170 160,155 C160,140 150,130 130,120" fill="#424242" />
  <path d="M130,120 C130,120 150,105 180,115 C210,125 260,160 300,160 C340,160 350,130 330,115 C310,100 270,140 300,160" fill="none" stroke="#424242" stroke-width="10" stroke-linecap="round" />
  
  <!-- Subtle gear pattern for optimization -->
  <g opacity="0.1">
    <circle cx="400" cy="400" r="40" fill="#1976d2" />
    <circle cx="400" cy="400" r="25" fill="#f5f5f5" />
    <path d="M400,360 L405,370 L415,370 L420,360 L415,350 L405,350 Z" fill="#1976d2" transform="rotate(0 400 400)" />
    <path d="M400,360 L405,370 L415,370 L420,360 L415,350 L405,350 Z" fill="#1976d2" transform="rotate(45 400 400)" />
    <path d="M400,360 L405,370 L415,370 L420,360 L415,350 L405,350 Z" fill="#1976d2" transform="rotate(90 400 400)" />
    <path d="M400,360 L405,370 L415,370 L420,360 L415,350 L405,350 Z" fill="#1976d2" transform="rotate(135 400 400)" />
    <path d="M400,360 L405,370 L415,370 L420,360 L415,350 L405,350 Z" fill="#1976d2" transform="rotate(180 400 400)" />
    <path d="M400,360 L405,370 L415,370 L420,360 L415,350 L405,350 Z" fill="#1976d2" transform="rotate(225 400 400)" />
    <path d="M400,360 L405,370 L415,370 L420,360 L415,350 L405,350 Z" fill="#1976d2" transform="rotate(270 400 400)" />
    <path d="M400,360 L405,370 L415,370 L420,360 L415,350 L405,350 Z" fill="#1976d2" transform="rotate(315 400 400)" />
  </g>
</svg>